<?xml version="1.0" standalone="no"?>
<!DOCTYPE svg PUBLIC "-//W3C//DTD SVG 20010904//EN"
 "http://www.w3.org/TR/2001/REC-SVG-20010904/DTD/svg10.dtd">
<svg version="1.0" xmlns="http://www.w3.org/2000/svg"
 width="100.000000pt" height="100.000000pt" viewBox="0 0 100.000000 100.000000"
 preserveAspectRatio="xMidYMid meet">
<metadata>
Created by potrace 1.10, written by Peter Selinger 2001-2011
</metadata>
<g transform="translate(0.000000,100.000000) scale(0.100000,-0.100000)"
fill="#000000" stroke="none">
<path d="M104 815 l-25 -25 3 -255 3 -255 -28 0 c-34 0 -43 -21 -27 -61 25
-58 30 -59 470 -59 440 0 445 1 470 59 16 40 7 61 -27 61 l-28 0 3 255 3 255
-25 25 -25 25 -371 0 -371 0 -25 -25z m764 -27 c17 -17 17 -479 0 -496 -17
-17 -719 -17 -736 0 -17 17 -17 479 0 496 17 17 719 17 736 0z m-375 -536
c236 -2 364 1 377 8 15 8 26 7 46 -7 l26 -17 -27 -23 -27 -24 -393 3 c-375 3
-394 4 -415 23 l-22 20 23 18 c14 11 28 15 38 10 9 -4 177 -9 374 -11z"/>
<path d="M440 540 l0 -200 60 0 60 0 0 200 0 200 -60 0 -60 0 0 -200z m88 -3
l-3 -152 -27 -3 -28 -3 0 160 c0 166 4 179 43 159 16 -8 17 -24 15 -161z"/>
<path d="M600 500 l0 -160 60 0 60 0 0 160 0 160 -60 0 -60 0 0 -160z m80 111
c5 -11 10 -67 10 -125 l0 -106 -30 0 -30 0 0 119 c0 116 3 127 32 130 4 1 12
-8 18 -18z"/>
<path d="M280 450 l0 -110 60 0 60 0 0 110 0 110 -60 0 -60 0 0 -110z m86 46
c3 -13 4 -42 2 -67 -3 -40 -6 -44 -30 -47 -28 -3 -28 -3 -28 60 0 35 5 69 11
75 16 16 38 5 45 -21z"/>
</g>
</svg>
